<svg width="62" height="47" viewBox="0 0 62 47" fill="none" xmlns="http://www.w3.org/2000/svg">
<path d="M14.2002 1.00024H1.00024V44.6366C1.00024 44.6366 2.80024 46.0002 7.60024 46.0002C12.4002 46.0002 14.2002 44.6366 14.2002 44.6366V16.0002M47.8002 1.00024H61.0002V44.6366C61.0002 44.6366 59.2002 46.0002 54.4002 46.0002C49.6002 46.0002 47.8002 44.6366 47.8002 44.6366V16.0002" stroke="#1570EF" stroke-width="2" stroke-linecap="round" stroke-linejoin="round"/>
<path d="M31.0002 1.00024C31.0002 1.00024 32.8669 9.18206 39.4002 9.18206C45.9336 9.18206 47.8002 1.00024 47.8002 1.00024" stroke="#1570EF" stroke-width="2" stroke-linecap="round" stroke-linejoin="round"/>
<path d="M31.0002 1.00024C31.0002 1.00024 34.3336 16.0002 46.0002 16.0002C57.6669 16.0002 61.0002 1.00024 61.0002 1.00024" stroke="#1570EF" stroke-width="2" stroke-linecap="round" stroke-linejoin="round"/>
<path d="M1.00024 1.00024C1.00024 1.00024 4.33358 16.0002 16.0002 16.0002C27.6669 16.0002 31.0002 1.00024 31.0002 1.00024" stroke="#1570EF" stroke-width="2" stroke-linecap="round" stroke-linejoin="round"/>
<path d="M14.2002 1.00024C14.2002 1.00024 16.0669 9.18206 22.6002 9.18206C29.1335 9.18206 31.0002 1.00024 31.0002 1.00024" stroke="#1570EF" stroke-width="2" stroke-linecap="round" stroke-linejoin="round"/>
</svg>
