<svg width="62" height="47" viewBox="0 0 62 47" fill="none" xmlns="http://www.w3.org/2000/svg">
<path d="M13 44.875L10.3333 1.5625C10.3333 1.5625 9 1 7 1C5 1 3.66667 1.5625 3.66667 1.5625L1 44.875C1 44.875 1 46 7 46C13 46 13 44.875 13 44.875Z" stroke="#1570EF" stroke-width="2" stroke-linejoin="round"/>
<path d="M29 44.875L26.3333 1.5625C26.3333 1.5625 25 1 23 1C21 1 19.6667 1.5625 19.6667 1.5625L17 44.875C17 44.875 17 46 23 46C29 46 29 44.875 29 44.875Z" stroke="#1570EF" stroke-width="2" stroke-linejoin="round"/>
<path d="M45 44.875L42.3333 1.5625C42.3333 1.5625 41 1 39 1C37 1 35.6667 1.5625 35.6667 1.5625L33 44.875C33 44.875 33 46 39 46C45 46 45 44.875 45 44.875Z" stroke="#1570EF" stroke-width="2" stroke-linejoin="round"/>
<path d="M61 44.875L58.3333 1.5625C58.3333 1.5625 57 1 55 1C53 1 51.6667 1.5625 51.6667 1.5625L49 44.875C49 44.875 49 46 55 46C61 46 61 44.875 61 44.875Z" stroke="#1570EF" stroke-width="2" stroke-linejoin="round"/>
<path d="M10.3335 2.6875C10.3335 2.6875 11.6668 3.8125 15.0002 3.8125C18.3335 3.8125 19.6668 2.6875 19.6668 2.6875M26.3335 2.6875C26.3335 2.6875 27.6668 3.8125 31.0002 3.8125C34.3335 3.8125 35.6668 2.6875 35.6668 2.6875M42.3335 2.6875C42.3335 2.6875 43.6668 3.8125 47.0002 3.8125C50.3335 3.8125 51.6668 2.6875 51.6668 2.6875M13.0002 43.1875C13.0002 43.1875 13.3285 43.75 15.0002 43.75C16.6718 43.75 17.0002 43.1875 17.0002 43.1875M29.0002 43.1875C29.0002 43.1875 29.6569 43.75 31.0001 43.75C32.3434 43.75 33.0002 43.1875 33.0002 43.1875M45.0002 43.1875C45.0002 43.1875 45.7763 43.75 47.1195 43.75C48.4628 43.75 49.0002 43.1875 49.0002 43.1875" stroke="#1570EF" stroke-width="2" stroke-linejoin="round"/>
<path d="M3.66675 6.625C3.66675 6.625 4.33341 6.0625 7.00008 6.0625C9.66675 6.0625 10.3334 6.625 10.3334 6.625M19.6667 6.625C19.6667 6.625 20.3334 6.0625 23.0001 6.0625C25.6667 6.0625 26.3334 6.625 26.3334 6.625M35.6667 6.625C35.6667 6.625 36.3334 6.0625 39.0001 6.0625C41.6667 6.0625 42.3334 6.625 42.3334 6.625M51.6667 6.625C51.6667 6.625 52.3334 6.0625 55.0001 6.0625C57.6667 6.0625 58.3334 6.625 58.3334 6.625" stroke="#1570EF" stroke-width="2" stroke-linejoin="round"/>
<path d="M10.3335 7.1875C10.3335 7.1875 11.6668 7.75 15.0002 7.75C18.3335 7.75 19.0002 7.1875 19.0002 7.1875M27.0002 7.1875C27.0002 7.1875 27.6668 7.75 31.0002 7.75C34.3335 7.75 35.0002 7.1875 35.0002 7.1875M43.0002 7.1875C43.0002 7.1875 43.6668 7.75 47.0002 7.75C50.3335 7.75 51.0002 7.1875 51.0002 7.1875" stroke="#1570EF" stroke-width="2" stroke-linejoin="round"/>
</svg>
