<svg width="62" height="47" viewBox="0 0 62 47" fill="none" xmlns="http://www.w3.org/2000/svg">
<path d="M61 1H1V7.27907H61V1Z" stroke="#1570EF" stroke-width="2" stroke-linecap="round" stroke-linejoin="round"/>
<path d="M53 10.5H3V14.5H28H53V10.5Z" stroke="#1570EF" stroke-width="2" stroke-linecap="round" stroke-linejoin="round"/>
<path d="M53 17.5H3V21.5H28H53V17.5Z" stroke="#1570EF" stroke-width="2" stroke-linecap="round" stroke-linejoin="round"/>
<path d="M53 24.5H3V28.5H28H53V24.5Z" stroke="#1570EF" stroke-width="2" stroke-linecap="round" stroke-linejoin="round"/>
<path d="M53 31.5H3V35.5H28H53V31.5Z" stroke="#1570EF" stroke-width="2" stroke-linecap="round" stroke-linejoin="round"/>
<path d="M53 38.5H3V42.5H28H53V38.5Z" stroke="#1570EF" stroke-width="2" stroke-linecap="round" stroke-linejoin="round"/>
<path d="M57.4 7.80225V42.8604M57.4 42.8604L56.2 45.9999H58.6L57.4 42.8604Z" stroke="#1570EF" stroke-width="2" stroke-linecap="round" stroke-linejoin="round"/>
<path d="M8 7.5V10.5M8 14.5V17.5M8 21.5V24.5M8 28.5V31.5M8 35.5V38.5M48 35.5V38.5M48 31.5V28.5M48 24.5V21.5M48 17.5V14.5M48 10.5V7.5" stroke="#1570EF" stroke-width="2" stroke-linecap="round" stroke-linejoin="round"/>
</svg>
