<svg width="62" height="47" viewBox="0 0 62 47" fill="none" xmlns="http://www.w3.org/2000/svg">
<path d="M34.3337 7.30798C34.5352 7.30816 34.9353 7.47026 35.3425 8.21326C35.7299 8.91997 35.9997 9.96484 35.9998 11.1732C35.9998 12.3816 35.7298 13.4264 35.3425 14.1332C34.9352 14.8763 34.5352 15.0383 34.3337 15.0385C34.2871 15.0385 34.1642 15.0188 33.9646 14.8392C33.7637 14.6585 33.5437 14.3651 33.3386 13.9633C32.9269 13.1563 32.6667 12.0953 32.6667 11.1732C32.6668 10.2512 32.9269 9.1901 33.3386 8.38318C33.5436 7.98149 33.7638 7.68791 33.9646 7.5072C34.1641 7.32775 34.2871 7.30798 34.3337 7.30798Z" stroke="#1570EF" stroke-width="2"/>
<path d="M5 1.00024C15.2239 3.97955 32.6045 8.15057 20.3358 1.00024" stroke="#1570EF" stroke-width="2" stroke-linecap="round"/>
<path d="M24.5555 41.2506C39.1817 49.6545 40.5555 44.3468 40.5555 44.3468M40.5555 41.2506C55.1817 49.6545 56.5555 44.3468 56.5555 44.3468M24.5556 44.3468C24.5556 44.3468 23.1818 49.6545 8.55556 41.2506L5 39.2076" stroke="#1570EF" stroke-width="2" stroke-linecap="round"/>
<path d="M20.3357 1.00024V4.53874" stroke="#1570EF" stroke-width="2" stroke-linecap="round"/>
<path d="M21 1.00024C31.2239 3.97955 48.6045 8.15057 36.3358 1.00024" stroke="#1570EF" stroke-width="2" stroke-linecap="round"/>
<path d="M36.3359 1.00024V4.53874" stroke="#1570EF" stroke-width="2" stroke-linecap="round"/>
<path d="M37 1.00024C47.2239 3.97955 64.6045 8.15057 52.3358 1.00024" stroke="#1570EF" stroke-width="2" stroke-linecap="round"/>
<path d="M52.3359 1.00024V4.53874" stroke="#1570EF" stroke-width="2" stroke-linecap="round"/>
<path d="M24.5557 4.5387V44.3467" stroke="#1570EF" stroke-width="2" stroke-linecap="round"/>
<path d="M5 1.00024V39.039" stroke="#1570EF" stroke-width="2" stroke-linecap="round"/>
<path d="M40.5557 4.5387V44.3467" stroke="#1570EF" stroke-width="2" stroke-linecap="round"/>
<path d="M56.5557 4.5387V44.3467" stroke="#1570EF" stroke-width="2" stroke-linecap="round"/>
<path d="M51.2227 7.30798C51.4241 7.30816 51.8242 7.47026 52.2314 8.21326C52.6188 8.91997 52.8886 9.96484 52.8887 11.1732C52.8887 12.3816 52.6188 13.4264 52.2314 14.1332C51.8242 14.8763 51.4241 15.0383 51.2227 15.0385C51.0213 15.0385 50.6214 14.8766 50.2139 14.1332C49.8265 13.4264 49.5557 12.3817 49.5557 11.1732C49.5557 9.96484 49.8265 8.91997 50.2139 8.21326C50.6213 7.47009 51.0213 7.30798 51.2227 7.30798Z" stroke="#1570EF" stroke-width="2"/>
<path d="M18.3337 7.30798C18.5352 7.30816 18.9353 7.47026 19.3425 8.21326C19.7299 8.91997 19.9997 9.96484 19.9998 11.1732C19.9998 12.3816 19.7298 13.4264 19.3425 14.1332C18.9352 14.8763 18.5352 15.0383 18.3337 15.0385C18.1324 15.0385 17.7324 14.8766 17.325 14.1332C16.9376 13.4264 16.6667 12.3817 16.6667 11.1732C16.6668 9.96484 16.9376 8.91997 17.325 8.21326C17.7324 7.47009 18.1324 7.30798 18.3337 7.30798Z" stroke="#1570EF" stroke-width="2"/>
<path d="M24.5557 14.2696H35.6668C35.6668 14.2696 36.5557 13.385 36.5557 11.1735C36.5557 8.96189 35.6668 8.07727 35.6668 8.07727H24.5557V14.2696Z" fill="#FCFCFD" stroke="#1570EF" stroke-width="2" stroke-linecap="round"/>
<path d="M2.33333 14.2696H19.6667C19.6667 14.2696 20.5556 13.385 20.5556 11.1735C20.5556 8.96189 19.6667 8.07727 19.6667 8.07727H2.33333C2.33333 8.07727 1 8.96189 1 11.1735C1 13.385 2.33333 14.2696 2.33333 14.2696Z" fill="#FCFCFD" stroke="#1570EF" stroke-width="2" stroke-linecap="round"/>
<path d="M40.5557 14.2696H52.0783C52.0783 14.2696 53.0001 13.385 53.0001 11.1735C53.0001 8.96189 52.0783 8.07727 52.0783 8.07727H40.5557V14.2696Z" fill="#FCFCFD" stroke="#1570EF" stroke-width="2" stroke-linecap="round"/>
<path d="M56.5557 14.2696H59.8478C59.8478 14.2696 61.0001 13.385 61.0001 11.1735C61.0001 8.96189 59.8478 8.07727 59.8478 8.07727H56.5557V14.2696Z" fill="#FCFCFD" stroke="#1570EF" stroke-width="2" stroke-linecap="round"/>
</svg>
