<svg width="62" height="47" viewBox="0 0 62 47" fill="none" xmlns="http://www.w3.org/2000/svg">
<path d="M25.3491 14.5693L25.3396 43.9231C25.3396 43.9231 26.839 46 31 46C35.1609 46 36.6604 43.9231 36.6604 43.9231V14.5693M25.3491 14.5693C25.3491 14.5693 27.6038 16.2308 31 16.2308C34.3962 16.2308 36.6604 14.5693 36.6604 14.5693M25.3491 14.5693V3.76923M36.6604 14.5693V3.76923M25.3491 3.76923C25.3491 3.76923 26.4717 5.15384 31 5.15384C35.5283 5.15384 36.6604 3.76923 36.6604 3.76923M25.3491 3.76923C25.3491 3.76923 25.3396 2.38461 25.9056 1.69231C26.4717 1 27.0377 1 27.0377 1M36.6604 3.76923C36.6604 3.76923 36.6604 2.38461 36.0943 1.69231C35.5283 1 34.9622 1 34.9622 1" stroke="#1570EF" stroke-width="2" stroke-linecap="round" stroke-linejoin="round"/>
<path d="M43.4624 14.5693L43.4529 43.9231C43.4529 43.9231 44.9523 46 49.1133 46C53.2742 46 54.7736 43.9231 54.7736 43.9231V14.5693M43.4624 14.5693C43.4624 14.5693 45.717 16.2308 49.1133 16.2308C52.5095 16.2308 54.7736 14.5693 54.7736 14.5693M43.4624 14.5693V3.76923M54.7736 14.5693V3.76923M43.4624 3.76923C43.4624 3.76923 44.585 5.15384 49.1133 5.15384C53.6416 5.15384 54.7736 3.76923 54.7736 3.76923M43.4624 3.76923C43.4624 3.76923 43.4529 2.38461 44.0189 1.69231C44.585 1 45.151 1 45.151 1M54.7736 3.76923C54.7736 3.76923 54.7736 2.38461 54.2076 1.69231C53.6416 1 53.0755 1 53.0755 1" stroke="#1570EF" stroke-width="2" stroke-linecap="round" stroke-linejoin="round"/>
<path d="M7.23603 14.5693L7.22656 43.9231C7.22656 43.9231 8.726 46 12.8869 46C17.0479 46 18.5473 43.9231 18.5473 43.9231V14.5693M7.23603 14.5693C7.23603 14.5693 9.49072 16.2308 12.8869 16.2308C16.2832 16.2308 18.5473 14.5693 18.5473 14.5693M7.23603 14.5693V3.76923M18.5473 14.5693V3.76923M7.23603 3.76923C7.23603 3.76923 8.35865 5.15384 12.8869 5.15384C17.4152 5.15384 18.5473 3.76923 18.5473 3.76923M7.23603 3.76923C7.23603 3.76923 7.22656 2.38461 7.7926 1.69231C8.35864 1 8.92468 1 8.92468 1M18.5473 3.76923C18.5473 3.76923 18.5473 2.38461 17.9813 1.69231C17.4152 1 16.8492 1 16.8492 1" stroke="#1570EF" stroke-width="2" stroke-linecap="round" stroke-linejoin="round"/>
<path d="M34.9623 1H45.1509M8.92453 1H1V10.6923M7.22642 39.7692C7.22642 39.7692 6.09434 41.1538 3.83019 41.1538C1.56604 41.1538 1 39.7692 1 39.7692V10.6923M18.5472 39.7692C18.5472 39.7692 19.6792 41.1538 21.9434 41.1538C24.2075 41.1538 25.3396 39.7692 25.3396 39.7692M36.6604 39.7692C36.6604 39.7692 37.7925 41.1538 40.0566 41.1538C42.3208 41.1538 43.4528 39.7692 43.4528 39.7692M54.7736 39.7692C54.7736 39.7692 55.9057 41.1538 58.1698 41.1538C60.434 41.1538 61 39.7692 61 39.7692V10.6923M36.6604 10.6923C36.6604 10.6923 37.7925 12.0769 40.0566 12.0769C42.3208 12.0769 43.4528 10.6923 43.4528 10.6923M54.7736 10.6923C54.7736 10.6923 56.4717 12.0769 58.1698 12.0769C59.8679 12.0769 61 10.6923 61 10.6923M61 10.6923V1H53.0755M25.3396 10.6923C25.3396 10.6923 24.2075 12.0769 21.9434 12.0769C19.6792 12.0769 18.5472 10.6923 18.5472 10.6923M7.22642 10.6923C7.22642 10.6923 6.09434 12.0769 4.39623 12.0769C2.69811 12.0769 1 10.6923 1 10.6923M16.8491 1H27.0377" stroke="#1570EF" stroke-width="2" stroke-linecap="round" stroke-linejoin="round"/>
</svg>
