<svg width="62" height="47" viewBox="0 0 62 47" fill="none" xmlns="http://www.w3.org/2000/svg">
<path d="M61 1H1V4.82979H61V1Z" stroke="#1570EF" stroke-width="2" stroke-linecap="round" stroke-linejoin="round"/>
<path d="M3.40002 7.70213L3.40002 46L10.6 46L10.6 7.70213L3.40002 7.70213Z" stroke="#1570EF" stroke-width="2" stroke-linecap="round" stroke-linejoin="round"/>
<path d="M14.1999 7.70213L14.2 46L21.4 46L21.4 7.70213L14.1999 7.70213Z" stroke="#1570EF" stroke-width="2" stroke-linecap="round" stroke-linejoin="round"/>
<path d="M25 7.70213L25 46L32.2 46L32.2 7.70213L25 7.70213Z" stroke="#1570EF" stroke-width="2" stroke-linecap="round" stroke-linejoin="round"/>
<path d="M35.8 7.70213L35.8 46L43.0001 46L43 7.70213L35.8 7.70213Z" stroke="#1570EF" stroke-width="2" stroke-linecap="round" stroke-linejoin="round"/>
<path d="M46.6 7.70213L46.6 46L53.8 46L53.8 7.70213L46.6 7.70213Z" stroke="#1570EF" stroke-width="2" stroke-linecap="round" stroke-linejoin="round"/>
<path d="M7 7.70217V4.82983M17.8 7.70217V4.82983M28.6 7.70217V4.82983M39.4 7.70217V4.82983M50.2 7.70217V4.82983M58.6 4.82983V23.9788M58.6 23.9788L57.4 26.8511H59.8L58.6 23.9788Z" stroke="#1570EF" stroke-width="2" stroke-linecap="round" stroke-linejoin="round"/>
</svg>
