<svg width="62" height="47" viewBox="0 0 62 47" fill="none" xmlns="http://www.w3.org/2000/svg">
<path d="M1 35.6154V45.188C1 45.188 2.2 46 5.8 46C9.4 46 10.6 45.188 10.6 45.188V35.6154M1 35.6154C1 35.6154 0.999998 36.7692 5.8 36.7692C10.6 36.7692 10.6 35.6154 10.6 35.6154M1 35.6154L1 7.92308M10.6 35.6154V7.92308M1 7.92308L1 2.15385C1 2.15385 2.2 1 5.8 1C9.4 1 10.6 2.15385 10.6 2.15385V7.92308M1 7.92308C1 7.92308 0.999998 6.85 5.8 6.85C10.6 6.85 10.6 7.92308 10.6 7.92308" stroke="#1570EF" stroke-width="2" stroke-linejoin="round"/>
<path d="M17.8 35.6154V45.188C17.8 45.188 19 46 22.6 46C26.2 46 27.4 45.188 27.4 45.188V35.6154M17.8 35.6154C17.8 35.6154 17.8 36.7692 22.6 36.7692C27.4001 36.7692 27.4 35.6154 27.4 35.6154M17.8 35.6154L17.8 7.92308M27.4 35.6154V7.92308M17.8 7.92308L17.8 2.15385C17.8 2.15385 19 1 22.6 1C26.2 1 27.4 2.15385 27.4 2.15385V7.92308M17.8 7.92308C17.8 7.92308 17.8 6.85 22.6 6.85C27.4001 6.85 27.4 7.92308 27.4 7.92308" stroke="#1570EF" stroke-width="2" stroke-linejoin="round"/>
<path d="M51.3999 35.6154V45.188C51.3999 45.188 52.5999 46 56.1999 46C59.7999 46 60.9999 45.188 60.9999 45.188V35.6154M51.3999 35.6154C51.3999 35.6154 51.3999 36.7692 56.1999 36.7692C60.9999 36.7692 60.9999 35.6154 60.9999 35.6154M51.3999 35.6154L51.3999 7.92308M60.9999 35.6154V7.92308M51.3999 7.92308L51.3999 2.15385C51.3999 2.15385 52.5999 1 56.1999 1C59.7999 1 60.9999 2.15385 60.9999 2.15385V7.92308M51.3999 7.92308C51.3999 7.92308 51.3999 6.85 56.1999 6.85C60.9999 6.85 60.9999 7.92308 60.9999 7.92308" stroke="#1570EF" stroke-width="2" stroke-linejoin="round"/>
<path d="M34.6001 35.6154V45.188C34.6001 45.188 35.8001 46 39.4001 46C43.0001 46 44.2001 45.188 44.2001 45.188V35.6154M34.6001 35.6154C34.6001 35.6154 34.6001 36.7692 39.4001 36.7692C44.2001 36.7692 44.2001 35.6154 44.2001 35.6154M34.6001 35.6154L34.6001 7.92308M44.2001 35.6154V7.92308M34.6001 7.92308L34.6001 2.15385C34.6001 2.15385 35.8001 1 39.4001 1C43.0001 1 44.2001 2.15385 44.2001 2.15385V7.92308M34.6001 7.92308C34.6001 7.92308 34.6001 6.85 39.4001 6.85C44.2001 6.85 44.2001 7.92308 44.2001 7.92308" stroke="#1570EF" stroke-width="2" stroke-linejoin="round"/>
<path d="M14.1999 43.6923C10.5999 43.6923 10.5999 42.3896 10.5999 42.3896V5.03848C10.5999 5.03848 10.5999 4.03352 14.1999 4.03352C17.7999 4.03352 17.7999 5.03848 17.7999 5.03848V42.3896C17.7999 42.3896 17.7999 43.6923 14.1999 43.6923Z" fill="#FCFCFD"/>
<path d="M30.9999 43.6923C27.3999 43.6923 27.3999 42.3896 27.3999 42.3896V4.8896C27.3999 4.8896 27.3999 3.88463 30.9999 3.88463C34.5999 3.88463 34.5999 4.8896 34.5999 4.8896V42.3896C34.5999 42.3896 34.5999 43.6923 30.9999 43.6923Z" fill="#FCFCFD"/>
<path d="M47.7999 3.60547C44.1999 3.60547 44.1999 4.61043 44.1999 4.61043V42.3896C44.1999 42.3896 44.1999 43.6923 47.7999 43.6923C51.3999 43.6923 51.3999 42.3896 51.3999 42.3896V4.61043C51.3999 4.61043 51.3999 3.60547 47.7999 3.60547Z" fill="#FCFCFD"/>
<path d="M14.1999 43.6923C10.5999 43.6923 10.5999 42.3896 10.5999 42.3896V5.03848C10.5999 5.03848 10.5999 4.03352 14.1999 4.03352C17.7999 4.03352 17.7999 5.03848 17.7999 5.03848V42.3896C17.7999 42.3896 17.7999 43.6923 14.1999 43.6923Z" stroke="#1570EF" stroke-width="2" stroke-linejoin="round"/>
<path d="M30.9999 43.6923C27.3999 43.6923 27.3999 42.3896 27.3999 42.3896V4.8896C27.3999 4.8896 27.3999 3.88463 30.9999 3.88463C34.5999 3.88463 34.5999 4.8896 34.5999 4.8896V42.3896C34.5999 42.3896 34.5999 43.6923 30.9999 43.6923Z" stroke="#1570EF" stroke-width="2" stroke-linejoin="round"/>
<path d="M47.7999 3.60547C44.1999 3.60547 44.1999 4.61043 44.1999 4.61043V42.3896C44.1999 42.3896 44.1999 43.6923 47.7999 43.6923C51.3999 43.6923 51.3999 42.3896 51.3999 42.3896V4.61043C51.3999 4.61043 51.3999 3.60547 47.7999 3.60547Z" stroke="#1570EF" stroke-width="2" stroke-linejoin="round"/>
</svg>
