<svg width="62" height="47" viewBox="0 0 62 47" fill="none" xmlns="http://www.w3.org/2000/svg">
<path d="M31 25.4936C31 25.4936 47.0222 36.886 54.6705 30.0506C62.3188 23.2151 60.8952 1.56958 60.8952 1.56958" stroke="#1570EF" stroke-width="2" stroke-linecap="round" stroke-linejoin="round"/>
<path d="M31.7119 25.4936C31.7119 25.4936 44.1092 31.7466 50.3669 25.9059C56.6246 20.0651 55.201 1.56958 55.201 1.56958" stroke="#1570EF" stroke-width="2" stroke-linecap="round" stroke-linejoin="round"/>
<path d="M31.7119 25.4936C31.7119 25.4936 41.3868 27.1973 45.911 22.2371C50.4353 17.2769 48.7949 1.56958 48.7949 1.56958" stroke="#1570EF" stroke-width="2" stroke-linecap="round" stroke-linejoin="round"/>
<path d="M31 25.4936C31 25.4936 37.9992 25.839 40.9651 20.9367C43.9309 16.0344 42.1987 1.56958 42.1987 1.56958" stroke="#1570EF" stroke-width="2" stroke-linecap="round" stroke-linejoin="round"/>
<path d="M31 25.4884C31 25.4884 34.4061 25.8336 35.8493 20.9324C37.2926 16.0312 35.9825 1.56958 35.9825 1.56958" stroke="#1570EF" stroke-width="2" stroke-linecap="round" stroke-linejoin="round"/>
<path d="M29.5764 25.4884C29.5764 25.4884 26.1704 25.8336 24.7271 20.9324C23.2838 16.0312 24.5939 1.56958 24.5939 1.56958" stroke="#1570EF" stroke-width="2" stroke-linecap="round" stroke-linejoin="round"/>
<path d="M29.8893 25.4937C29.8893 25.4937 22.89 25.7195 19.9242 20.8172C16.9584 15.9148 18.6906 1.45007 18.6906 1.45007" stroke="#1570EF" stroke-width="2" stroke-linecap="round" stroke-linejoin="round"/>
<path d="M29.8663 25.4937C29.8663 25.4937 20.1914 27.1973 15.6672 22.2371C11.143 17.2769 12.6418 1.45007 12.6418 1.45007" stroke="#1570EF" stroke-width="2" stroke-linecap="round" stroke-linejoin="round"/>
<path d="M30.2882 25.4936C30.2882 25.4936 18.0301 31.7466 11.7724 25.9059C5.51471 20.0651 6.93829 1.56958 6.93829 1.56958" stroke="#1570EF" stroke-width="2" stroke-linecap="round" stroke-linejoin="round"/>
<path d="M31 25.4936C31 25.4936 14.9778 36.886 7.32948 30.0506C-0.318819 23.2151 1.10476 1.56958 1.10476 1.56958" stroke="#1570EF" stroke-width="2" stroke-linecap="round" stroke-linejoin="round"/>
<path d="M21.0349 44.8607L26.7214 28.9113C26.7214 28.9113 27.441 26.6328 31 26.6328C34.5589 26.6328 35.2512 28.9113 35.2512 28.9113L40.9651 44.8607C40.9651 44.8607 40.2533 45.9999 31 45.9999C21.7467 45.9999 21.0349 44.8607 21.0349 44.8607Z" stroke="#1570EF" stroke-width="2" stroke-linejoin="round"/>
<path d="M1.10486 1.56962C1.10486 1.56962 2.52844 1 3.95202 1C5.37561 1 6.79919 1.56962 6.79919 1.56962M6.79919 3.8481C6.79919 3.8481 8.22277 4.41772 9.64635 4.41772C11.0699 4.41772 12.4935 3.8481 12.4935 3.8481M12.6418 1.45C12.6418 1.45 14.6289 1 16.0525 1C17.4761 1 18.9105 1.56962 18.9105 1.56962M18.1879 3.8481C18.1879 3.8481 20.3232 4.41772 21.7468 4.41772C23.1704 4.41772 24.594 3.8481 24.594 3.8481M24.594 1.56962C24.594 1.56962 26.7293 1 30.2883 1C33.8473 1 35.9826 1.56962 35.9826 1.56962M35.9826 3.8481C35.9826 3.8481 37.4062 4.41772 38.8298 4.41772C40.2534 4.41772 42.3888 3.8481 42.3888 3.8481M42.3888 1.56962C42.3888 1.56962 44.5241 1 45.9477 1C47.3713 1 48.7949 1.56962 48.7949 1.56962M48.7949 3.8481C48.7949 3.8481 50.9303 4.41772 52.3538 4.41772C53.7774 4.41772 55.201 3.8481 55.201 3.8481M55.201 1.56962C55.201 1.56962 56.6246 1 58.0482 1C59.4717 1 60.8953 1.56962 60.8953 1.56962" stroke="#1570EF" stroke-width="2" stroke-linejoin="round"/>
</svg>
